<svg width="16" height="20" viewBox="0 0 16 20" fill="none" xmlns="http://www.w3.org/2000/svg">
<path d="M8 10.8335C9.38071 10.8335 10.5 9.71421 10.5 8.3335C10.5 6.95278 9.38071 5.8335 8 5.8335C6.61929 5.8335 5.5 6.95278 5.5 8.3335C5.5 9.71421 6.61929 10.8335 8 10.8335Z" stroke="#0D9CA8" stroke-width="2" stroke-linecap="round" stroke-linejoin="round"/>
<path d="M7.99992 1.66675C6.23181 1.66675 4.53612 2.36913 3.28587 3.61937C2.03563 4.86961 1.33325 6.5653 1.33325 8.33342C1.33325 9.91008 1.66825 10.9417 2.58325 12.0834L7.99992 18.3334L13.4166 12.0834C14.3316 10.9417 14.6666 9.91008 14.6666 8.33342C14.6666 6.5653 13.9642 4.86961 12.714 3.61937C11.4637 2.36913 9.76803 1.66675 7.99992 1.66675V1.66675Z" stroke="#0D9CA8" stroke-width="2" stroke-linecap="round" stroke-linejoin="round"/>
</svg>
