<svg width="43" height="43" viewBox="0 0 43 43" fill="none" xmlns="http://www.w3.org/2000/svg">
<g clip-path="url(#clip0_79_10467)">
<path fill-rule="evenodd" clip-rule="evenodd" d="M31.2019 25.7678C30.668 25.5009 28.0503 24.2144 27.563 24.0353C27.0757 23.8579 26.7209 23.7701 26.3644 24.304C26.0096 24.8344 24.9902 26.0348 24.6802 26.3895C24.3685 26.7461 24.0585 26.7891 23.5264 26.5239C22.9942 26.2552 21.2778 25.6944 19.2443 23.8812C17.6622 22.4694 16.5926 20.7261 16.2827 20.1922C15.9727 19.66 16.2486 19.3716 16.5156 19.1064C16.7557 18.8681 17.0477 18.4847 17.3147 18.1747C17.5816 17.863 17.6694 17.6408 17.8468 17.2843C18.026 16.9295 17.9364 16.6196 17.802 16.3526C17.6694 16.0857 16.6052 13.4644 16.1608 12.3984C15.729 11.361 15.2901 11.5026 14.964 11.4847C14.6523 11.4703 14.2975 11.4667 13.9427 11.4667C13.588 11.4667 13.0111 11.5993 12.5237 12.1332C12.0346 12.6654 10.6604 13.9536 10.6604 16.5748C10.6604 19.1942 12.5667 21.7258 12.8337 22.0824C13.1007 22.4371 16.5873 27.8157 21.9282 30.1216C23.2003 30.6698 24.1911 30.9977 24.9633 31.2414C26.239 31.6481 27.4 31.5907 28.3173 31.4528C29.3385 31.3005 31.467 30.1646 31.9114 28.9212C32.3539 27.6777 32.3539 26.6117 32.2213 26.3895C32.0887 26.1674 31.734 26.0348 31.2001 25.7678H31.2019ZM21.4875 39.0315H21.4803C18.308 39.0321 15.194 38.1793 12.4646 36.5626L11.8196 36.1792L5.11521 37.9386L6.90508 31.4026L6.48404 30.7325C4.71054 27.9095 3.77199 24.6423 3.77683 21.3084C3.78042 11.5438 11.7247 3.59953 21.4946 3.59953C26.2246 3.59953 30.6715 5.44495 34.0148 8.79178C35.6638 10.434 36.9708 12.3869 37.8602 14.5375C38.7496 16.6881 39.2037 18.9937 39.1963 21.3209C39.1927 31.0855 31.2485 39.0315 21.4875 39.0315V39.0315ZM36.559 6.24941C34.5849 4.26231 32.2361 2.68674 29.6487 1.61401C27.0612 0.541271 24.2866 -0.00730328 21.4857 7.34181e-05C9.74308 7.34181e-05 0.18275 9.55861 0.179167 21.3066C0.173725 25.0453 1.1545 28.7194 3.02254 31.958L0 43.0001L11.2947 40.0367C14.4191 41.739 17.9204 42.6309 21.4785 42.631H21.4875C33.23 42.631 42.7904 33.0724 42.794 21.3227C42.8026 18.5228 42.256 15.749 41.1858 13.1617C40.1156 10.5744 38.543 8.22502 36.559 6.24941" fill="white"/>
</g>
<defs>
<clipPath id="clip0_79_10467">
<rect width="43" height="43" fill="white"/>
</clipPath>
</defs>
</svg>
