<?xml version="1.0" standalone="no"?>
<!DOCTYPE svg PUBLIC "-//W3C//DTD SVG 20010904//EN"
 "http://www.w3.org/TR/2001/REC-SVG-20010904/DTD/svg10.dtd">
<svg version="1.0" xmlns="http://www.w3.org/2000/svg"
 width="155.000000pt" height="54.000000pt" viewBox="0 0 155.000000 54.000000"
 preserveAspectRatio="xMidYMid meet">

<g transform="translate(0.000000,54.000000) scale(0.100000,-0.100000)"
fill="#000000" stroke="none">
<path d="M117 523 c-13 -12 -7 -33 8 -33 21 0 20 -7 -23 -165 -33 -119 -41
-140 -59 -143 -12 -2 -23 -12 -26 -23 -5 -18 1 -19 73 -19 69 0 78 2 83 20 4
15 0 20 -14 20 -10 0 -19 1 -19 3 0 18 33 107 39 107 5 0 28 -34 52 -75 l43
-76 85 3 85 3 28 100 c15 55 30 112 34 127 l6 28 -135 0 c-111 0 -136 -3 -141
-15 -4 -10 1 -15 15 -15 11 0 19 -6 17 -12 -3 -15 63 -138 74 -138 13 0 14 35
2 61 -8 16 -10 37 -5 55 6 25 13 29 49 32 l41 3 -24 -88 c-14 -48 -25 -91 -25
-95 0 -5 -10 -8 -22 -8 -18 1 -33 18 -66 75 -40 71 -44 75 -78 75 -30 0 -35 3
-30 17 4 9 14 44 22 79 13 50 20 63 37 66 12 2 23 11 25 21 3 15 -5 17 -71 17
-40 0 -77 -3 -80 -7z"/>
<path d="M550 320 c0 -28 4 -40 14 -40 8 0 17 6 19 13 4 10 6 10 6 0 1 -7 11
-13 22 -13 18 0 19 2 9 15 -10 12 -10 21 -2 40 10 22 9 25 -7 25 -11 0 -22 -6
-24 -12 -4 -10 -6 -10 -6 0 -1 6 -8 12 -16 12 -11 0 -15 -11 -15 -40z"/>
<path d="M640 320 c0 -39 1 -40 35 -40 38 0 49 19 13 21 -17 1 -19 2 -5 6 9 2
17 8 17 13 0 5 -8 11 -17 13 -17 4 -17 5 0 6 30 2 18 21 -13 21 -28 0 -30 -2
-30 -40z"/>
<path d="M720 320 c0 -46 17 -59 56 -42 17 9 24 20 24 41 0 30 -14 41 -56 41
-21 0 -24 -4 -24 -40z m50 -5 c0 -8 -4 -15 -10 -15 -5 0 -10 7 -10 15 0 8 5
15 10 15 6 0 10 -7 10 -15z"/>
<path d="M822 321 l-9 -39 44 0 c36 0 43 3 39 15 -3 8 -9 26 -12 39 -4 17 -13
24 -29 24 -18 0 -25 -8 -33 -39z"/>
<path d="M910 320 c0 -29 4 -40 15 -40 11 0 15 11 15 40 0 29 -4 40 -15 40
-11 0 -15 -11 -15 -40z"/>
<path d="M550 206 c0 -34 4 -46 15 -46 8 0 15 6 15 14 0 7 9 16 21 19 15 4 20
12 17 29 -2 18 -10 24 -35 26 -33 3 -33 3 -33 -42z"/>
<path d="M630 205 c0 -46 13 -58 38 -33 9 9 12 9 12 0 0 -7 10 -12 21 -12 18
0 19 3 9 15 -7 8 -9 22 -6 31 9 24 -12 44 -45 44 -28 0 -29 -2 -29 -45z"/>
<path d="M730 235 c-19 -23 -4 -64 27 -71 20 -5 31 -2 45 16 22 27 22 34 2 54
-20 20 -58 21 -74 1z m50 -30 c0 -8 -4 -15 -10 -15 -5 0 -10 7 -10 15 0 8 5
15 10 15 6 0 10 -7 10 -15z"/>
<path d="M841 236 c-29 -35 10 -93 47 -70 23 15 28 44 8 44 -9 0 -16 -5 -16
-11 0 -5 -4 -7 -10 -4 -17 11 -11 25 11 25 26 0 20 24 -8 28 -11 2 -25 -4 -32
-12z"/>
<path d="M920 206 c0 -34 4 -46 15 -46 8 0 15 8 15 18 1 16 1 16 11 0 12 -21
74 -25 83 -5 5 10 7 10 12 0 6 -14 34 -18 34 -5 0 4 -5 24 -11 45 -8 31 -14
38 -32 35 -15 -2 -25 -14 -32 -42 -9 -29 -14 -36 -20 -26 -5 8 -9 26 -9 40 -1
21 -6 26 -33 28 -33 3 -33 3 -33 -42z"/>
<path d="M1100 205 c0 -33 4 -45 15 -45 10 0 15 10 16 28 l1 27 10 -27 c12
-34 26 -36 38 -5 l9 22 0 -22 c1 -14 7 -23 16 -23 11 0 15 12 15 45 0 39 -3
45 -20 45 -12 0 -24 -9 -29 -22 l-8 -23 -7 23 c-5 15 -15 22 -32 22 -22 0 -24
-4 -24 -45z"/>
<path d="M1240 206 c0 -33 4 -46 14 -46 8 0 17 8 19 18 4 16 5 16 6 0 0 -10 7
-18 15 -18 8 0 17 8 19 18 4 16 5 16 6 0 0 -10 8 -18 16 -18 11 0 15 12 15 46
0 41 -2 45 -22 42 -14 -2 -25 -12 -29 -28 l-6 -25 -4 25 c-3 17 -11 26 -26 28
-21 3 -23 -1 -23 -42z"/>
<path d="M1370 205 c0 -44 0 -45 33 -45 34 0 34 0 33 45 -1 44 -2 45 -33 45
-32 0 -33 -1 -33 -45z"/>
<path d="M1450 206 c0 -34 4 -46 15 -46 8 0 15 8 15 18 1 16 1 16 11 0 5 -10
17 -18 24 -18 16 0 20 12 8 24 -4 4 -7 19 -8 34 0 23 -5 27 -32 30 -33 3 -33
3 -33 -42z"/>
<path d="M211 154 c-6 -22 -14 -54 -17 -72 -5 -25 -12 -32 -30 -32 -17 0 -24
-6 -24 -20 0 -18 7 -20 74 -20 58 0 75 3 80 16 9 23 8 24 -12 24 -15 0 -18 6
-14 28 2 17 -6 44 -21 71 l-25 44 -11 -39z"/>
</g>
</svg>
