<svg width="151" height="45" viewBox="0 0 151 45" fill="none" xmlns="http://www.w3.org/2000/svg">
<path d="M68.6396 18.3507V1.35742H71.7367V8.27628H73.9339L77.931 1.35742H81.2852L76.4701 9.445V9.49175L81.5657 18.3507H78.0946L73.9339 10.9293H71.7367V18.3507H68.6396Z" fill="white"/>
<path d="M82.6293 14.8328C82.6293 14.2173 82.7578 13.668 83.0149 13.1849C83.2721 12.7019 83.6266 12.3162 84.0785 12.0279C84.5226 11.7396 84.994 11.502 85.4926 11.315C85.9835 11.128 86.525 10.9877 87.1172 10.8942C87.6314 10.8163 88.1301 10.7618 88.6131 10.7306C89.0105 10.7072 89.4273 10.6955 89.8637 10.6955H90.2727V10.5202C90.2727 9.08659 89.4897 8.36977 87.9236 8.36977C87.4249 8.36977 86.8912 8.47106 86.3224 8.67364C85.777 8.86843 85.3446 9.06322 85.0252 9.25801L84.5693 9.5385L83.424 7.36467C83.572 7.24001 83.7746 7.09976 84.0317 6.94393C84.3122 6.77252 84.8576 6.55046 85.6679 6.27776C86.5016 5.99726 87.347 5.85701 88.2041 5.85701C89.8169 5.85701 91.0675 6.27776 91.9557 7.11924C92.8439 7.96072 93.288 9.16061 93.288 10.7189V18.3507H90.4831V17.3456L90.5298 16.4807H90.4831C90.4909 16.4807 90.4909 16.4885 90.4831 16.5041C90.4753 16.5197 90.4636 16.547 90.448 16.5859C90.4325 16.6249 90.413 16.6677 90.3896 16.7145C90.3195 16.8469 90.1831 17.0261 89.9805 17.2521C89.8247 17.4235 89.5949 17.63 89.291 17.8715C89.0417 18.0663 88.6794 18.2455 88.2041 18.4091C87.7522 18.565 87.2769 18.6429 86.7782 18.6429C85.6251 18.6429 84.6473 18.3 83.8447 17.6144C83.0344 16.9209 82.6293 15.9938 82.6293 14.8328ZM85.6913 14.6926C85.6913 15.1133 85.851 15.4834 86.1705 15.8029C86.4822 16.1145 86.938 16.2704 87.5379 16.2704C88.3015 16.2704 88.9521 15.9314 89.4897 15.2536C90.0273 14.5757 90.2961 13.8433 90.2961 13.0564V12.7759H89.7702C87.0509 12.7759 85.6913 13.4148 85.6913 14.6926Z" fill="white"/>
<path d="M95.1113 6.1492H98.3136L100.441 14.1667L100.686 15.4523H100.733C100.819 15.0003 100.916 14.5718 101.025 14.1667L103.269 6.17257H105.969L108.224 14.1667L108.493 15.4523H108.54C108.602 15.0081 108.688 14.5796 108.797 14.1667L110.924 6.1492H114.091L110.375 18.3507H107.009L104.94 11.3851L104.636 10.0644H104.59C104.535 10.4696 104.438 10.9098 104.297 11.3851L102.24 18.3507H98.8395L95.1113 6.1492Z" fill="white"/>
<path d="M115.073 14.8328C115.073 14.2173 115.202 13.668 115.459 13.1849C115.716 12.7019 116.07 12.3162 116.522 12.0279C116.966 11.7396 117.438 11.502 117.936 11.315C118.427 11.128 118.969 10.9877 119.561 10.8942C120.075 10.8163 120.574 10.7618 121.057 10.7306C121.454 10.7072 121.871 10.6955 122.307 10.6955H122.717V10.5202C122.717 9.08659 121.934 8.36977 120.367 8.36977C119.869 8.36977 119.335 8.47106 118.766 8.67364C118.221 8.86843 117.788 9.06322 117.469 9.25801L117.013 9.5385L115.868 7.36467C116.016 7.24001 116.218 7.09976 116.476 6.94393C116.756 6.77252 117.301 6.55046 118.112 6.27776C118.945 5.99726 119.791 5.85701 120.648 5.85701C122.261 5.85701 123.511 6.27776 124.4 7.11924C125.288 7.96072 125.732 9.16061 125.732 10.7189V18.3507H122.927V17.3456L122.974 16.4807H122.927C122.935 16.4807 122.935 16.4885 122.927 16.5041C122.919 16.5197 122.907 16.547 122.892 16.5859C122.876 16.6249 122.857 16.6677 122.833 16.7145C122.763 16.8469 122.627 17.0261 122.424 17.2521C122.269 17.4235 122.039 17.63 121.735 17.8715C121.485 18.0663 121.123 18.2455 120.648 18.4091C120.196 18.565 119.721 18.6429 119.222 18.6429C118.069 18.6429 117.091 18.3 116.289 17.6144C115.478 16.9209 115.073 15.9938 115.073 14.8328ZM118.135 14.6926C118.135 15.1133 118.295 15.4834 118.614 15.8029C118.926 16.1145 119.382 16.2704 119.982 16.2704C120.745 16.2704 121.396 15.9314 121.934 15.2536C122.471 14.5757 122.74 13.8433 122.74 13.0564V12.7759H122.214C119.495 12.7759 118.135 13.4148 118.135 14.6926Z" fill="white"/>
<path d="M128.887 18.3507V1.35742H131.926V7.2478L131.879 8.27628H131.926C132.261 7.62179 132.803 7.05301 133.551 6.56994C134.283 6.09466 135.148 5.85701 136.145 5.85701C138.966 5.85701 140.376 7.40363 140.376 10.4969V18.3507H137.361V11.128C137.361 10.3021 137.224 9.68264 136.952 9.26969C136.671 8.84895 136.161 8.63858 135.421 8.63858C134.641 8.63858 133.956 8.87233 133.364 9.33982C132.779 9.79952 132.366 10.4111 132.125 11.1747C131.992 11.6188 131.926 12.1448 131.926 12.7525V18.3507H128.887Z" fill="white"/>
<path d="M68.6396 42.2862V25.2929H78.8192V27.9459H71.7367V32.3988H77.4518V35.0635H71.7367V39.6332H79.1932V42.2862H68.6396Z" fill="white"/>
<path d="M81.0982 36.1854C81.0982 34.2609 81.6125 32.7143 82.641 31.5456C83.6694 30.3769 84.9979 29.7925 86.6263 29.7925C87.1405 29.7925 87.6041 29.8432 88.0171 29.9444C88.4534 30.0535 88.7923 30.1821 89.0339 30.3301C89.291 30.486 89.5014 30.6418 89.665 30.7976C89.8598 30.9768 89.9805 31.1054 90.0273 31.1833L90.1442 31.3469H90.1909C90.1753 31.0664 90.1675 30.8366 90.1675 30.6574V25.2929H93.2062V42.2862H90.3312V41.2811L90.3779 40.4863H90.3312C90.3234 40.5019 90.3039 40.537 90.2727 40.5915C90.2494 40.6383 90.226 40.6811 90.2026 40.7201C90.1559 40.798 90.0195 40.9616 89.7936 41.211C89.591 41.4369 89.3494 41.6473 89.0689 41.8421C88.8196 42.0135 88.4534 42.181 87.9703 42.3446C87.5028 42.5005 87.0159 42.5784 86.5094 42.5784C84.8654 42.5784 83.5526 41.9862 82.5708 40.8019C81.5891 39.6254 81.0982 38.0866 81.0982 36.1854ZM84.1603 36.1854C84.1603 37.3308 84.4408 38.2541 85.0018 38.9553C85.5628 39.6566 86.2952 40.0072 87.199 40.0072C88.0483 40.0072 88.7729 39.6838 89.3728 39.0371C89.965 38.3982 90.261 37.4399 90.261 36.1621C90.261 35.1336 89.9922 34.2493 89.4546 33.5091C88.917 32.7689 88.1729 32.3988 87.2224 32.3988C86.3497 32.3988 85.6212 32.7377 85.0368 33.4156C84.4525 34.0934 84.1603 35.0167 84.1603 36.1854Z" fill="white"/>
<path d="M96.3968 37.9268V30.0847H99.4355V37.3074C99.4355 38.1255 99.5758 38.7449 99.8563 39.1657C100.137 39.5864 100.628 39.7968 101.329 39.7968C102.381 39.7968 103.214 39.3994 103.83 38.6047C104.445 37.8178 104.753 36.8438 104.753 35.6829V30.0847H107.792V42.2862H104.87V40.8954L104.917 40.0305H104.87C104.527 40.724 103.982 41.32 103.234 41.8187C102.47 42.3251 101.605 42.5784 100.639 42.5784C97.811 42.5784 96.3968 41.0279 96.3968 37.9268Z" fill="white"/>
<path d="M111.146 42.2862V25.2929H114.185V34.3856H115.693L118.638 30.0847H122.015L118.159 35.531V35.5894L122.494 42.2862H119L115.774 36.9451H114.185V42.2862H111.146Z" fill="white"/>
<path d="M123.324 38.7683C123.324 38.1528 123.453 37.6035 123.71 37.1204C123.967 36.6373 124.322 36.2517 124.774 35.9634C125.218 35.6751 125.689 35.4375 126.188 35.2505C126.679 35.0635 127.22 34.9232 127.812 34.8297C128.326 34.7518 128.825 34.6973 129.308 34.6661C129.706 34.6427 130.122 34.631 130.559 34.631H130.968V34.4557C130.968 33.0221 130.185 32.3053 128.619 32.3053C128.12 32.3053 127.586 32.4066 127.017 32.6091C126.472 32.8039 126.04 32.9987 125.72 33.1935L125.264 33.474L124.119 31.3002C124.267 31.1755 124.47 31.0353 124.727 30.8794C125.007 30.708 125.553 30.486 126.363 30.2133C127.197 29.9328 128.042 29.7925 128.899 29.7925C130.512 29.7925 131.762 30.2133 132.651 31.0547C133.539 31.8962 133.983 33.0961 133.983 34.6544V42.2862H131.178V41.2811L131.225 40.4162H131.178C131.186 40.4162 131.186 40.424 131.178 40.4396C131.17 40.4552 131.159 40.4825 131.143 40.5214C131.127 40.5604 131.108 40.6032 131.085 40.65C131.015 40.7824 130.878 40.9616 130.676 41.1876C130.52 41.359 130.29 41.5655 129.986 41.807C129.737 42.0018 129.374 42.181 128.899 42.3446C128.447 42.5005 127.972 42.5784 127.473 42.5784C126.32 42.5784 125.342 42.2355 124.54 41.5499C123.729 40.8564 123.324 39.9293 123.324 38.7683ZM126.386 38.6281C126.386 39.0488 126.546 39.4189 126.866 39.7384C127.177 40.05 127.633 40.2059 128.233 40.2059C128.997 40.2059 129.647 39.8669 130.185 39.1891C130.722 38.5112 130.991 37.7788 130.991 36.9919V36.7114H130.465C127.746 36.7114 126.386 37.3503 126.386 38.6281Z" fill="white"/>
<path d="M136.11 40.7785L137.501 38.6515C137.571 38.7216 137.711 38.8423 137.922 39.0138C138.14 39.1852 138.522 39.3877 139.067 39.6215C139.644 39.863 140.232 39.9838 140.832 39.9838C141.276 39.9838 141.654 39.8903 141.965 39.7033C142.277 39.5163 142.433 39.2436 142.433 38.8852C142.433 38.5657 142.23 38.2736 141.825 38.0087C141.436 37.7515 140.941 37.51 140.341 37.284C139.819 37.0893 139.235 36.8282 138.588 36.501C138.011 36.2127 137.517 35.8037 137.104 35.2738C136.698 34.7518 136.496 34.1207 136.496 33.3805C136.496 32.2819 136.936 31.4092 137.816 30.7626C138.697 30.1159 139.811 29.7925 141.159 29.7925C141.977 29.7925 142.729 29.9094 143.415 30.1431C144.1 30.3769 144.58 30.6106 144.852 30.8444L145.261 31.1833L144.128 33.4272C144.026 33.3337 143.909 33.2364 143.777 33.1351C143.59 33.0026 143.251 32.8468 142.76 32.6676C142.223 32.4728 141.681 32.3754 141.136 32.3754C140.707 32.3754 140.341 32.4689 140.037 32.6559C139.733 32.8429 139.581 33.1156 139.581 33.474C139.581 33.7857 139.784 34.0623 140.189 34.3038C140.602 34.5531 141.097 34.7869 141.673 35.005C142.258 35.231 142.842 35.4881 143.426 35.7764C144.019 36.0725 144.513 36.4815 144.911 37.0035C145.316 37.5334 145.518 38.1684 145.518 38.9086C145.518 39.9604 145.098 40.8331 144.256 41.5265C143.399 42.2278 142.265 42.5784 140.855 42.5784C139.967 42.5784 139.125 42.4264 138.331 42.1226C137.528 41.8187 136.956 41.5226 136.613 41.2343L136.11 40.7785Z" fill="white"/>
<path d="M147.961 42.2862V30.0847H151V42.2862H147.961ZM147.961 27.9927V25.2929H150.976V27.9927H147.961Z" fill="white"/>
<path d="M43.0504 0C45.7768 0 47.8568 0.727735 49.2903 2.1832C50.752 3.61068 51.4828 5.66793 51.4828 8.35494V17.0038C51.4828 18.7671 52.3541 19.6488 54.0968 19.6488H55.9519V25.0648H54.0968C52.3541 25.0648 51.4828 25.9325 51.4828 27.6679V36.3167C51.4828 39.0317 50.752 41.103 49.2903 42.5304C47.8568 43.9859 45.7768 44.7136 43.0504 44.7136H38.4969V39.2137H42.2915C44.0623 39.2137 44.9477 38.346 44.9477 36.6106V27.7099C44.9477 26.2264 45.1725 25.0928 45.6222 24.3091C46.072 23.5254 46.9714 22.9096 48.3206 22.4618V22.2099C46.9714 21.762 46.072 21.1323 45.6222 20.3206C45.1725 19.5089 44.9477 18.4033 44.9477 17.0038V8.06105C44.9477 6.32569 44.0623 5.458 42.2915 5.458H38.4969V0H43.0504Z" fill="white"/>
<path d="M12.9016 0C10.1751 0 8.09509 0.727735 6.66158 2.1832C5.19996 3.61068 4.46916 5.66793 4.46916 8.35494V17.0038C4.46916 18.7671 3.59781 19.6488 1.85511 19.6488H-1.17404e-05V25.0648H1.85511C3.59781 25.0648 4.46916 25.9325 4.46916 27.6679V36.3167C4.46916 39.0317 5.19996 41.103 6.66158 42.5304C8.09509 43.9859 10.1751 44.7136 12.9016 44.7136H17.455V39.2137H13.6605C11.8897 39.2137 11.0043 38.346 11.0043 36.6106V27.7099C11.0043 26.2264 10.7794 25.0928 10.3297 24.3091C9.87995 23.5254 8.98049 22.9096 7.6313 22.4618V22.2099C8.98049 21.762 9.87995 21.1323 10.3297 20.3206C10.7794 19.5089 11.0043 18.4033 11.0043 17.0038V8.06105C11.0043 6.32569 11.8897 5.458 13.6605 5.458H17.455V0H12.9016Z" fill="#FDCE2D"/>
<path d="M21.657 15.6719L33.2643 4.06464L37.7144 8.51474L26.1071 20.122L21.657 15.6719Z" fill="#FDCE2D"/>
<path d="M15.0644 22.2644L33.264 40.464L37.7149 36.0131L19.5153 17.8135L15.0644 22.2644Z" fill="#FDCE2D"/>
</svg>
