<svg width="62" height="43" viewBox="0 0 62 43" fill="none" xmlns="http://www.w3.org/2000/svg">
<path d="M0.561933 40.2899C3.18429 37.6401 5.24471 35.1709 6.7432 32.8823C8.24169 30.5938 8.99093 28.7269 8.99093 27.2815C8.99093 26.4384 8.67875 25.6555 8.05438 24.9328C7.55488 24.2101 6.7432 23.4272 5.61934 22.584C3.8711 21.2591 2.49748 19.8739 1.49849 18.4286C0.499497 16.9832 0 15.056 0 12.6471C0 8.91316 1.1863 5.90196 3.55891 3.61344C5.93151 1.20448 8.9285 0 12.5498 0C16.4209 0 19.5428 1.20448 21.9154 3.61344C24.4129 5.90196 25.6616 8.91316 25.6616 12.6471C25.6616 17.3445 23.6012 22.5238 19.4804 28.1849C15.4844 33.7255 10.1148 38.6639 3.3716 43L0.561933 40.2899ZM36.9003 40.2899C39.5227 37.6401 41.5831 35.1709 43.0816 32.8823C44.5801 30.5938 45.3293 28.7269 45.3293 27.2815C45.3293 26.4384 45.0171 25.6555 44.3927 24.9328C43.8933 24.2101 43.0816 23.4272 41.9577 22.584C40.2095 21.2591 38.8358 19.8739 37.8369 18.4286C36.8379 16.9832 36.3384 15.056 36.3384 12.6471C36.3384 8.91316 37.5247 5.90196 39.8973 3.61344C42.2699 1.20448 45.2669 0 48.8882 0C52.7593 0 55.8812 1.20448 58.2538 3.61344C60.7513 5.90196 62 8.91316 62 12.6471C62 17.3445 59.9396 22.5238 55.8187 28.1849C51.8228 33.7255 46.4532 38.6639 39.71 43L36.9003 40.2899Z" fill="#F7B731"/>
</svg>
